<svg width="22" height="18" viewBox="0 0 22 18" fill="none" xmlns="http://www.w3.org/2000/svg">
<rect width="22" height="18" fill="#E5E5E5"/>
<g id="Desktop" clip-path="url(#clip0_0_1)">
<rect width="1920" height="6615" transform="translate(-1390 -40)" fill="white"/>
<g id="&#208;&#158;&#208;&#177;&#208;&#187;&#208;&#190;&#208;&#182;&#208;&#186;&#208;&#176;">
<rect id="Rectangle 1" x="-1390" y="-39" width="1920" height="900" fill="#070A1B"/>
</g>
<g id="&#208;&#165;&#208;&#181;&#208;&#180;&#208;&#181;&#209;&#128;">
<g id="&#209;&#129;&#208;&#190;&#209;&#134; &#209;&#129;&#208;&#181;&#209;&#130;&#208;&#184;">
<g id="Twitter">
<g id="BG">
<path id="Mask" fill-rule="evenodd" clip-rule="evenodd" d="M9.94681 28.5106C20.9631 28.5106 29.8936 19.6659 29.8936 8.75532C29.8936 -2.15524 20.9631 -11 9.94681 -11C-1.06951 -11 -10 -2.15524 -10 8.75532C-10 19.6659 -1.06951 28.5106 9.94681 28.5106Z" fill="#F5F6FA" fill-opacity="0.01"/>
<mask id="mask0_0_1" style="mask-type:luminance" maskUnits="userSpaceOnUse" x="-10" y="-11" width="40" height="40">
<path id="Mask_2" fill-rule="evenodd" clip-rule="evenodd" d="M9.94681 28.5106C20.9631 28.5106 29.8936 19.6659 29.8936 8.75532C29.8936 -2.15524 20.9631 -11 9.94681 -11C-1.06951 -11 -10 -2.15524 -10 8.75532C-10 19.6659 -1.06951 28.5106 9.94681 28.5106Z" fill="white"/>
</mask>
<g mask="url(#mask0_0_1)">
</g>
</g>
<g id=" Icons / Social / Twitter">
<path id="Shape" d="M21.1701 2.86154C20.4246 3.19188 19.6247 3.41591 18.7842 3.51593C19.6424 3.00204 20.2993 2.18693 20.6106 1.21864C19.8056 1.69454 18.9171 2.04011 17.9703 2.22744C17.2122 1.41865 16.1338 0.914879 14.9376 0.914879C12.6429 0.914879 10.7823 2.77549 10.7823 5.06897C10.7823 5.39425 10.819 5.71195 10.8899 6.01574C7.43701 5.84232 4.37524 4.18803 2.32605 1.67429C1.96784 2.28691 1.76406 3.00075 1.76406 3.76274C1.76406 5.20441 2.49819 6.47645 3.61203 7.22067C2.93106 7.1979 2.2906 7.01057 1.72991 6.6992V6.75109C1.72991 8.76358 3.16271 10.4432 5.06253 10.8255C4.71445 10.9191 4.34741 10.971 3.96769 10.971C3.69937 10.971 3.43989 10.9444 3.18548 10.8938C3.71453 12.5456 5.24861 13.7467 7.06619 13.7797C5.64478 14.8935 3.85251 15.5555 1.90585 15.5555C1.57045 15.5555 1.24007 15.5352 0.914795 15.4985C2.75389 16.6794 4.93726 17.368 7.2839 17.368C14.9276 17.368 19.1057 11.0368 19.1057 5.54617L19.0918 5.00824C19.9082 4.42597 20.6144 3.69439 21.1701 2.86154Z" fill="#010002"/>
<mask id="mask1_0_1" style="mask-type:luminance" maskUnits="userSpaceOnUse" x="0" y="0" width="22" height="18">
<path id="Shape_2" d="M21.1701 2.86154C20.4246 3.19188 19.6247 3.41591 18.7842 3.51593C19.6424 3.00204 20.2993 2.18693 20.6106 1.21864C19.8056 1.69454 18.9171 2.04011 17.9703 2.22744C17.2122 1.41865 16.1338 0.914879 14.9376 0.914879C12.6429 0.914879 10.7823 2.77549 10.7823 5.06897C10.7823 5.39425 10.819 5.71195 10.8899 6.01574C7.43701 5.84232 4.37524 4.18803 2.32605 1.67429C1.96784 2.28691 1.76406 3.00075 1.76406 3.76274C1.76406 5.20441 2.49819 6.47645 3.61203 7.22067C2.93106 7.1979 2.2906 7.01057 1.72991 6.6992V6.75109C1.72991 8.76358 3.16271 10.4432 5.06253 10.8255C4.71445 10.9191 4.34741 10.971 3.96769 10.971C3.69937 10.971 3.43989 10.9444 3.18548 10.8938C3.71453 12.5456 5.24861 13.7467 7.06619 13.7797C5.64478 14.8935 3.85251 15.5555 1.90585 15.5555C1.57045 15.5555 1.24007 15.5352 0.914795 15.4985C2.75389 16.6794 4.93726 17.368 7.2839 17.368C14.9276 17.368 19.1057 11.0368 19.1057 5.54617L19.0918 5.00824C19.9082 4.42597 20.6144 3.69439 21.1701 2.86154Z" fill="white"/>
</mask>
<g mask="url(#mask1_0_1)">
<g id=".misc / Fill / Black">
<rect id="Rectangle" x="-2.65967" y="-3.85107" width="26.2128" height="26.2128" fill="white"/>
</g>
</g>
</g>
</g>
</g>
</g>
</g>
<defs>
<clipPath id="clip0_0_1">
<rect width="1920" height="6615" fill="white" transform="translate(-1390 -40)"/>
</clipPath>
</defs>
</svg>
